<?xml version="1.0" standalone="no"?>
<!DOCTYPE svg PUBLIC "-//W3C//DTD SVG 1.1//EN" "http://www.w3.org/Graphics/SVG/1.1/DTD/svg11.dtd">
<svg id="レイヤー_1" data-name="レイヤー 1" xmlns="http://www.w3.org/2000/svg" viewBox="0 0 760.41 75.92" width="760.4099731445312" height="75.91999816894531"><defs><style>.cls-1{fill:#009877;}.cls-2{fill:#393a3a;}</style></defs><path class="cls-1" d="M229.37,273.63h-5.19c-20.42,0-26.88,3.62-26.88,19.71v40.72a1.24,1.24,0,0,0,1.25,1.25h13a1.25,1.25,0,0,0,1.25-1.25V291.27c0-4.74,1.78-6.44,11.4-6.44h5.19a1.27,1.27,0,0,0,1.26-1.26v-8.68a1.27,1.27,0,0,0-1.26-1.26m-70.34,0c-20.42,0-26.87,3.62-26.87,19.71v40.72a1.25,1.25,0,0,0,1.25,1.25h13a1.25,1.25,0,0,0,1.25-1.25V291.27c0-4.74,1.77-6.44,11.4-6.44s11.39,1.7,11.39,6.44v42.79a1.25,1.25,0,0,0,1.25,1.25h13a1.26,1.26,0,0,0,1.26-1.25V293.34C185.9,277.25,179.44,273.63,159,273.63Zm-41.71.18h-8.49a2.93,2.93,0,0,1-2.93-2.94v-8.38a2.93,2.93,0,0,0-2.94-2.92h-2.88c-6.26,0-10.21,2.81-13.38,7.65-2.54,3.89-45.72,66.24-45.85,66.44a1.15,1.15,0,0,0-.16.58,1.07,1.07,0,0,0,1.08,1.07H56.61a3.07,3.07,0,0,0,2.6-1.44c.59-1,33.79-50.36,35.2-52.46,1.57-2.35,2.65-3.87,6.39-3.87,1.74,0,3.87.38,3.87,4.4v52.12a1.25,1.25,0,0,0,1.26,1.25H119a1.25,1.25,0,0,0,1.26-1.25V276.74A2.92,2.92,0,0,0,117.32,273.81Zm133.73,9.07h-13a1.25,1.25,0,0,0-1.25,1.25v49.93a1.25,1.25,0,0,0,1.25,1.25h13a1.26,1.26,0,0,0,1.26-1.25V284.13A1.26,1.26,0,0,0,251.05,282.88Zm159.4-9.07h-13a1.25,1.25,0,0,0-1.25,1.25v42.79c0,4.75-1.77,6.3-11.39,6.3s-11.4-1.55-11.4-6.3V275.06a1.26,1.26,0,0,0-1.26-1.25h-13a1.26,1.26,0,0,0-1.26,1.25v40.72c0,16.09,6.46,19.71,26.88,19.71s26.87-3.62,26.87-19.71V275.06A1.26,1.26,0,0,0,410.45,273.81Zm-70.63,31.12c-3.63-2.05-14.95-8.91-17.47-10.49-2.67-1.68-4.7-2.94-4.7-5.53,0-3.07,3.14-3.76,7.24-4.08,4.63-.36,15.47-.07,21.33.19a1.25,1.25,0,0,0,1.25-1.26v-8.52a1.31,1.31,0,0,0-1.25-1.26,203.4,203.4,0,0,0-22.49-.26c-14.23.52-21.24,5.35-21.24,15.34,0,6.38,3.53,10.28,9.88,14.19L331.77,315c3,1.82,4.2,3.13,4.2,5.18,0,3.07-3.15,3.76-7.25,4.08-4.63.36-18.63.16-23.25,0a1.23,1.23,0,0,0-1.25,1.25V334a1.31,1.31,0,0,0,1.25,1.25c4.95.2,14.85.28,23.67,0,17.24-.47,22-5.39,22-15.4C351.12,314.23,347,309,339.82,304.93Zm-44-31.12h-13a1.24,1.24,0,0,1-1.25-1.25V261.45a1.26,1.26,0,0,0-1.26-1.26h-13a1.26,1.26,0,0,0-1.26,1.26v54.12c0,17.56,8,19.75,23.81,19.75h5.91a1.25,1.25,0,0,0,1.25-1.25v-8.53a1.26,1.26,0,0,0-1.25-1.26H291.9c-6.13,0-10.32.16-10.32-5.25V286.08a1.26,1.26,0,0,1,1.25-1.25h13a1.25,1.25,0,0,0,1.25-1.26v-8.51A1.26,1.26,0,0,0,295.81,273.81Zm-44.76-13.62h-13a1.2,1.2,0,0,0-1.25,1.14v11.32a1.2,1.2,0,0,0,1.25,1.14h13a1.21,1.21,0,0,0,1.26-1.14V261.33A1.21,1.21,0,0,0,251.05,260.19Z" transform="translate(-40.69 -259.57)"/><path class="cls-2" d="M741.43,293.66c-6.52,0-10.87,4.68-10.87,11.16,0,6.1,4.43,11.16,10.87,11.16s10.82-5.06,10.82-11.16c0-6.48-4.35-11.16-10.82-11.16m0,19.14c-4.64,0-6.69-4.18-6.69-8,0-4.05,2.47-8,6.69-8s6.64,3.93,6.64,8C748.07,308.62,746,312.8,741.43,312.8Z" transform="translate(-40.69 -259.57)"/><path class="cls-2" d="M774.38,296.63c-1.34-1.72-3.75-3-7.84-3s-6.51,1.25-7.84,3c-1.53,2-1.59,4.41-1.59,7.84v10.41a.6.6,0,0,0,.6.6h2.73a.6.6,0,0,0,.6-.6V304.44c0-5,.16-7.6,5.5-7.6s5.49,2.63,5.49,7.6v10.44a.6.6,0,0,0,.6.6h2.73a.6.6,0,0,0,.6-.6V304.47C776,301,775.91,298.6,774.38,296.63Z" transform="translate(-40.69 -259.57)"/><path class="cls-2" d="M800.5,284.13h-2.73a.6.6,0,0,0-.6.6v12.36h-.09c-1.21-2-3.34-3.43-7.06-3.43-6.18,0-9.19,5.06-9.19,10.78S783.55,316,790,316a8.55,8.55,0,0,0,7.27-3.51h.09v2.41a.59.59,0,0,0,.59.6h2.57a.6.6,0,0,0,.6-.6V284.73a.6.6,0,0,0-.6-.6m-9.6,28.67c-4.22,0-6-4.72-5.89-8.06-.09-3.89,1.59-7.9,5.85-7.9s6.31,4.05,6.31,8C797.17,308.41,795.33,312.8,790.9,312.8Z" transform="translate(-40.69 -259.57)"/><path class="cls-2" d="M727.64,294.16h-2.86a.6.6,0,0,0-.56.41L718.5,311.8h-.08l-5.59-17.22a.6.6,0,0,0-.57-.42h-3.19a.48.48,0,0,0-.45.64l7,19.26a11.77,11.77,0,0,1,.75,2.25c0,.42-1.17,5.27-4.68,5.27a5.44,5.44,0,0,1-1.3-.18.47.47,0,0,0-.58.43l-.17,2.09a.61.61,0,0,0,.49.64,11.38,11.38,0,0,0,2.14.19c5.19,0,6.73-4.72,8.2-8.81l7.62-21.14a.48.48,0,0,0-.45-.64" transform="translate(-40.69 -259.57)"/><path class="cls-2" d="M695.46,293.66c-6,0-10,4.47-10,10.78,0,6.94,3.47,11.54,11,11.54a15.51,15.51,0,0,0,6.34-1.24.59.59,0,0,0,.39-.56v-2.62a.48.48,0,0,0-.72-.41,13.09,13.09,0,0,1-5.84,1.65,7,7,0,0,1-7-7.1h14.48a.72.72,0,0,0,.72-.73c-.16-6.49-2.54-11.31-9.39-11.31m-5.81,9.11c.29-2.76,1.88-5.93,5.72-5.93,3.39,0,5.31,2.67,5.31,5.93Z" transform="translate(-40.69 -259.57)"/><path class="cls-2" d="M671.61,293.66c-3.72,0-5.85,1.46-7.06,3.43h-.09V284.73a.59.59,0,0,0-.59-.6h-2.74a.59.59,0,0,0-.59.6v30.15a.59.59,0,0,0,.59.6h2.57a.6.6,0,0,0,.6-.6v-2.41h.08a8.56,8.56,0,0,0,7.27,3.51c6.44,0,9.15-5.69,9.15-11.54s-3-10.78-9.19-10.78m-.88,19.14c-4.43,0-6.27-4.39-6.27-7.94,0-4,2-8,6.31-8s5.94,4.05,5.86,7.9C676.71,308.08,675,312.8,670.73,312.8Z" transform="translate(-40.69 -259.57)"/><path class="cls-2" d="M489.29,284.13h-3a.48.48,0,0,0-.48.48v12.48h-.08c-1.22-2-3.35-3.43-7.07-3.43-6.18,0-9.19,5.06-9.19,10.78S472.22,316,478.65,316a8.55,8.55,0,0,0,7.27-3.51H486V315a.48.48,0,0,0,.47.48h2.81a.49.49,0,0,0,.48-.48V284.61a.49.49,0,0,0-.48-.48m-9.72,28.67c-4.22,0-6-4.72-5.89-8.06-.09-3.89,1.59-7.9,5.85-7.9s6.31,4.05,6.31,8C485.84,308.41,484,312.8,479.57,312.8Z" transform="translate(-40.69 -259.57)"/><path class="cls-2" d="M455.21,287.3a2.85,2.85,0,0,0-5.25.06L438.1,315.14a.24.24,0,0,0,.22.34h3.78a.35.35,0,0,0,.33-.23l2.83-7.13h14.39l2.83,7.13a.36.36,0,0,0,.33.23h3.95a.24.24,0,0,0,.22-.34Zm-8.59,17.4,5.57-14.06c.16-.42.36-.41.52,0l5.58,14.06Z" transform="translate(-40.69 -259.57)"/><path class="cls-2" d="M526.89,293.66a13.5,13.5,0,0,0-6.7,1.82.6.6,0,0,0-.3.56l.13,2.09a.48.48,0,0,0,.75.36,10.25,10.25,0,0,1,5.49-1.65c3.93,0,5.27,1.88,5.27,5.56-1.55-.09-2.63-.09-4.18-.09-4.05,0-9.9,1.67-9.9,7,0,4.64,3.21,6.65,7.81,6.65a7.92,7.92,0,0,0,6.6-3.26H532v2.16a.59.59,0,0,0,.59.6h2.32a.6.6,0,0,0,.6-.6v-12.4c0-5.81-2.47-8.82-8.57-8.82m4.64,13.54c0,3.18-2,5.6-5.94,5.6-1.79,0-4-1.21-4-3.47,0-3.76,5.27-4.09,7.4-4.09.84,0,1.67.08,2.51.08Z" transform="translate(-40.69 -259.57)"/><path class="cls-2" d="M559.23,296.63c-1.33-1.72-3.75-3-7.84-3s-6.5,1.25-7.84,3c-1.53,2-1.58,4.41-1.58,7.84v10.41a.59.59,0,0,0,.59.6h2.74a.59.59,0,0,0,.59-.6V304.44c0-5,.16-7.6,5.5-7.6s5.5,2.63,5.5,7.6v10.44a.59.59,0,0,0,.59.6h2.74a.59.59,0,0,0,.59-.6V304.47C560.81,301,560.76,298.6,559.23,296.63Z" transform="translate(-40.69 -259.57)"/><path class="cls-2" d="M580.94,312a8.41,8.41,0,0,1-3.58.85c-5.06,0-7.11-4.18-7.11-8,0-4.05,2.47-8,6.86-8a11,11,0,0,1,3.69.7.48.48,0,0,0,.63-.41l.23-2.17a.61.61,0,0,0-.41-.63,15.56,15.56,0,0,0-4.31-.67c-6.52,0-10.87,4.68-10.87,11.16,0,6.1,4.43,11.16,10.87,11.16a12.62,12.62,0,0,0,4.53-.71.57.57,0,0,0,.36-.6l-.19-2.33a.48.48,0,0,0-.7-.39" transform="translate(-40.69 -259.57)"/><path class="cls-2" d="M592,294.16H589.3a.59.59,0,0,0-.59.6v20.12a.59.59,0,0,0,.59.6H592a.6.6,0,0,0,.6-.6V294.76a.6.6,0,0,0-.6-.6" transform="translate(-40.69 -259.57)"/><path class="cls-2" d="M592.29,285h-3.24a.59.59,0,0,0-.59.6v3.23a.59.59,0,0,0,.59.6h3.24a.6.6,0,0,0,.6-.6v-3.23a.6.6,0,0,0-.6-.6" transform="translate(-40.69 -259.57)"/><path class="cls-2" d="M617,296.63c-1.34-1.72-3.75-3-7.84-3s-6.5,1.25-7.84,3c-1.53,2-1.58,4.41-1.58,7.84v10.41a.59.59,0,0,0,.59.6h2.74a.59.59,0,0,0,.59-.6V304.44c0-5,.16-7.6,5.5-7.6s5.5,2.63,5.5,7.6v10.44a.59.59,0,0,0,.59.6H618a.59.59,0,0,0,.59-.6V304.47C618.6,301,618.55,298.6,617,296.63Z" transform="translate(-40.69 -259.57)"/><path class="cls-2" d="M643.71,294.16h-2.44a.6.6,0,0,0-.6.6v2.58h-.08c-1.17-2.3-3.26-3.68-7-3.68-6.44,0-9.53,5.85-9.53,11.33s3,10.49,9.11,10.49a8.88,8.88,0,0,0,7.14-3.31h.09v2.09c0,4.52-2.47,7.32-6.6,7.32a15.4,15.4,0,0,1-6.95-1.59.6.6,0,0,0-.84.48l-.27,2.34a.61.61,0,0,0,.41.64,20.83,20.83,0,0,0,7.19,1.3c7.64,0,11-3.72,11-10.19v-19.8a.6.6,0,0,0-.6-.6m-9.56,18.14c-3.68,0-5.93-3.51-5.93-7.52,0-3.64,2-7.94,5.93-7.94,4.18,0,6.23,3.8,6.23,8.23C640.38,309,637.83,312.3,634.15,312.3Z" transform="translate(-40.69 -259.57)"/><path class="cls-2" d="M499.05,294.57a.6.6,0,0,0-.57-.41h-3.19a.48.48,0,0,0-.45.64l6.79,18.94a3.08,3.08,0,0,0,5.93,0l6.8-18.94a.48.48,0,0,0-.45-.64h-2.82a.6.6,0,0,0-.57.41l-5.58,16.68c-.09.28-.34.28-.43,0Z" transform="translate(-40.69 -259.57)"/></svg>