<svg xmlns="http://www.w3.org/2000/svg" viewBox="0 0 640 360" width="640" height="360" role="img">
<defs>
<linearGradient id="bg" x1="0" y1="0" x2="1" y2="1">
  <stop offset="0" stop-color="#0a1322"/><stop offset="1" stop-color="#0f1f38"/>
</linearGradient>
<radialGradient id="glowB" cx="0.5" cy="0.5" r="0.5">
  <stop offset="0" stop-color="#3b82f6" stop-opacity="0.55"/><stop offset="1" stop-color="#3b82f6" stop-opacity="0"/>
</radialGradient>
<radialGradient id="glowC" cx="0.5" cy="0.5" r="0.5">
  <stop offset="0" stop-color="#22d3ee" stop-opacity="0.40"/><stop offset="1" stop-color="#22d3ee" stop-opacity="0"/>
</radialGradient>
<linearGradient id="screen" x1="0" y1="0" x2="0" y2="1">
  <stop offset="0" stop-color="#0c1a30"/><stop offset="1" stop-color="#0a1626"/>
</linearGradient>
</defs>
<rect width="640" height="360" rx="0" fill="url(#bg)"/>
<g stroke="#1c2c47" stroke-width="1" opacity="0.55"><line x1="40" y1="0" x2="40" y2="360" /><line x1="80" y1="0" x2="80" y2="360" /><line x1="120" y1="0" x2="120" y2="360" /><line x1="160" y1="0" x2="160" y2="360" /><line x1="200" y1="0" x2="200" y2="360" /><line x1="240" y1="0" x2="240" y2="360" /><line x1="280" y1="0" x2="280" y2="360" /><line x1="320" y1="0" x2="320" y2="360" /><line x1="360" y1="0" x2="360" y2="360" /><line x1="400" y1="0" x2="400" y2="360" /><line x1="440" y1="0" x2="440" y2="360" /><line x1="480" y1="0" x2="480" y2="360" /><line x1="520" y1="0" x2="520" y2="360" /><line x1="560" y1="0" x2="560" y2="360" /><line x1="600" y1="0" x2="600" y2="360" /><line x1="0" y1="40" x2="640" y2="40" /><line x1="0" y1="80" x2="640" y2="80" /><line x1="0" y1="120" x2="640" y2="120" /><line x1="0" y1="160" x2="640" y2="160" /><line x1="0" y1="200" x2="640" y2="200" /><line x1="0" y1="240" x2="640" y2="240" /><line x1="0" y1="280" x2="640" y2="280" /><line x1="0" y1="320" x2="640" y2="320" /></g>
<circle cx="166" cy="108" r="150" fill="url(#glowB)"/>
<circle cx="499" cy="259" r="170" fill="url(#glowC)"/>
<g stroke="#8aa0bd" stroke-width="2" opacity="0.5" stroke-linecap="round"><path d="M18 18 h18 M18 18 v18"/><path d="M622 18 h-18 M622 18 v18"/><path d="M18 342 h18 M18 342 v-18"/><path d="M622 342 h-18 M622 342 v-18"/></g>
<g font-family="ui-monospace,Menlo,monospace" font-size="13" font-weight="600"><rect x="24" y="316" width="260" height="26" rx="13" fill="#0a1322" opacity="0.65"/><circle cx="40" cy="329" r="3.5" fill="#22d3ee"/><text x="54" y="334" fill="#e8eef6" opacity="0.92">LED DRIVER · 230V</text></g><rect x="120" y="80" width="300" height="210" rx="16" fill="url(#screen)" stroke="#1c2c47" stroke-width="2"/><g stroke-linecap="round"><path d="M134 132 h90 l24 -20 h120" fill="none" stroke="#3b82f6" stroke-width="2" opacity="0.55"/><path d="M134 185 h90 l24 -20 h120" fill="none" stroke="#3b82f6" stroke-width="2" opacity="0.55"/><path d="M134 238 h90 l24 -20 h120" fill="none" stroke="#3b82f6" stroke-width="2" opacity="0.55"/></g><circle cx="392" cy="268" r="4" fill="none" stroke="#22d3ee" stroke-width="2" opacity="0.8"/><circle cx="370" cy="268" r="4" fill="none" stroke="#22d3ee" stroke-width="2" opacity="0.8"/><circle cx="348" cy="268" r="4" fill="none" stroke="#22d3ee" stroke-width="2" opacity="0.8"/><circle cx="326" cy="268" r="4" fill="none" stroke="#22d3ee" stroke-width="2" opacity="0.8"/><circle cx="304" cy="268" r="4" fill="none" stroke="#22d3ee" stroke-width="2" opacity="0.8"/><g stroke="#22d3ee" stroke-width="2.5" stroke-linecap="round" opacity="0.85"><line x1="194" y1="141" x2="194" y2="129"/><line x1="194" y1="219" x2="194" y2="231"/><line x1="181" y1="154" x2="169" y2="154"/><line x1="259" y1="154" x2="271" y2="154"/><line x1="207" y1="141" x2="207" y2="129"/><line x1="207" y1="219" x2="207" y2="231"/><line x1="181" y1="167" x2="169" y2="167"/><line x1="259" y1="167" x2="271" y2="167"/><line x1="220" y1="141" x2="220" y2="129"/><line x1="220" y1="219" x2="220" y2="231"/><line x1="181" y1="180" x2="169" y2="180"/><line x1="259" y1="180" x2="271" y2="180"/><line x1="233" y1="141" x2="233" y2="129"/><line x1="233" y1="219" x2="233" y2="231"/><line x1="181" y1="193" x2="169" y2="193"/><line x1="259" y1="193" x2="271" y2="193"/><line x1="246" y1="141" x2="246" y2="129"/><line x1="246" y1="219" x2="246" y2="231"/><line x1="181" y1="206" x2="169" y2="206"/><line x1="259" y1="206" x2="271" y2="206"/></g><rect x="181" y="141" width="78" height="78" rx="12" fill="#0c1a30" stroke="#3b82f6" stroke-width="2.5"/><rect x="197" y="157" width="46" height="46" rx="6" fill="none" stroke="#8aa0bd" stroke-width="1.5" opacity="0.7"/><circle cx="207" cy="167" r="3" fill="#22d3ee"/><circle cx="460" cy="120" r="14" fill="#22d3ee" opacity="0.30" stroke="#22d3ee" stroke-width="2"/><circle cx="500" cy="120" r="14" fill="#22d3ee" opacity="0.30" stroke="#22d3ee" stroke-width="2"/><circle cx="540" cy="120" r="14" fill="#22d3ee" opacity="0.30" stroke="#22d3ee" stroke-width="2"/><circle cx="460" cy="166" r="14" fill="#22d3ee" opacity="0.30" stroke="#22d3ee" stroke-width="2"/><circle cx="500" cy="166" r="14" fill="#22d3ee" opacity="0.30" stroke="#22d3ee" stroke-width="2"/><circle cx="540" cy="166" r="14" fill="#22d3ee" opacity="0.30" stroke="#22d3ee" stroke-width="2"/>
</svg>
