<svg xmlns="http://www.w3.org/2000/svg" viewBox="0 0 640 360" width="640" height="360" role="img">
<defs>
<linearGradient id="bg" x1="0" y1="0" x2="1" y2="1">
  <stop offset="0" stop-color="#0a1322"/><stop offset="1" stop-color="#0f1f38"/>
</linearGradient>
<radialGradient id="glowB" cx="0.5" cy="0.5" r="0.5">
  <stop offset="0" stop-color="#3b82f6" stop-opacity="0.55"/><stop offset="1" stop-color="#3b82f6" stop-opacity="0"/>
</radialGradient>
<radialGradient id="glowC" cx="0.5" cy="0.5" r="0.5">
  <stop offset="0" stop-color="#22d3ee" stop-opacity="0.40"/><stop offset="1" stop-color="#22d3ee" stop-opacity="0"/>
</radialGradient>
<linearGradient id="screen" x1="0" y1="0" x2="0" y2="1">
  <stop offset="0" stop-color="#0c1a30"/><stop offset="1" stop-color="#0a1626"/>
</linearGradient>
</defs>
<rect width="640" height="360" rx="0" fill="url(#bg)"/>
<g stroke="#1c2c47" stroke-width="1" opacity="0.55"><line x1="40" y1="0" x2="40" y2="360" /><line x1="80" y1="0" x2="80" y2="360" /><line x1="120" y1="0" x2="120" y2="360" /><line x1="160" y1="0" x2="160" y2="360" /><line x1="200" y1="0" x2="200" y2="360" /><line x1="240" y1="0" x2="240" y2="360" /><line x1="280" y1="0" x2="280" y2="360" /><line x1="320" y1="0" x2="320" y2="360" /><line x1="360" y1="0" x2="360" y2="360" /><line x1="400" y1="0" x2="400" y2="360" /><line x1="440" y1="0" x2="440" y2="360" /><line x1="480" y1="0" x2="480" y2="360" /><line x1="520" y1="0" x2="520" y2="360" /><line x1="560" y1="0" x2="560" y2="360" /><line x1="600" y1="0" x2="600" y2="360" /><line x1="0" y1="40" x2="640" y2="40" /><line x1="0" y1="80" x2="640" y2="80" /><line x1="0" y1="120" x2="640" y2="120" /><line x1="0" y1="160" x2="640" y2="160" /><line x1="0" y1="200" x2="640" y2="200" /><line x1="0" y1="240" x2="640" y2="240" /><line x1="0" y1="280" x2="640" y2="280" /><line x1="0" y1="320" x2="640" y2="320" /></g>
<circle cx="166" cy="108" r="150" fill="url(#glowB)"/>
<circle cx="499" cy="259" r="170" fill="url(#glowC)"/>
<g stroke="#8aa0bd" stroke-width="2" opacity="0.5" stroke-linecap="round"><path d="M18 18 h18 M18 18 v18"/><path d="M622 18 h-18 M622 18 v18"/><path d="M18 342 h18 M18 342 v-18"/><path d="M622 342 h-18 M622 342 v-18"/></g>
<g font-family="ui-monospace,Menlo,monospace" font-size="13" font-weight="600"><rect x="24" y="316" width="218" height="26" rx="13" fill="#0a1322" opacity="0.65"/><circle cx="40" cy="329" r="3.5" fill="#22d3ee"/><text x="54" y="334" fill="#e8eef6" opacity="0.92">SMPS · ADAPTER</text></g><rect x="110" y="80" width="320" height="210" rx="16" fill="url(#screen)" stroke="#1c2c47" stroke-width="2"/><g stroke-linecap="round"><path d="M124 132 h96 l24 -20 h128" fill="none" stroke="#3b82f6" stroke-width="2" opacity="0.55"/><path d="M124 185 h96 l24 -20 h128" fill="none" stroke="#3b82f6" stroke-width="2" opacity="0.55"/><path d="M124 238 h96 l24 -20 h128" fill="none" stroke="#3b82f6" stroke-width="2" opacity="0.55"/></g><circle cx="402" cy="268" r="4" fill="none" stroke="#22d3ee" stroke-width="2" opacity="0.8"/><circle cx="380" cy="268" r="4" fill="none" stroke="#22d3ee" stroke-width="2" opacity="0.8"/><circle cx="358" cy="268" r="4" fill="none" stroke="#22d3ee" stroke-width="2" opacity="0.8"/><circle cx="336" cy="268" r="4" fill="none" stroke="#22d3ee" stroke-width="2" opacity="0.8"/><circle cx="314" cy="268" r="4" fill="none" stroke="#22d3ee" stroke-width="2" opacity="0.8"/><rect x="236" y="129" width="28" height="112" rx="6" fill="#0c1a30" stroke="#8aa0bd" stroke-width="2"/><path d="M200 145 q-18 10 0 20" fill="none" stroke="#3b82f6" stroke-width="3" opacity="0.8"/><path d="M200 165 q-18 10 0 20" fill="none" stroke="#3b82f6" stroke-width="3" opacity="0.8"/><path d="M200 185 q-18 10 0 20" fill="none" stroke="#3b82f6" stroke-width="3" opacity="0.8"/><path d="M200 205 q-18 10 0 20" fill="none" stroke="#3b82f6" stroke-width="3" opacity="0.8"/><path d="M200 225 q-18 10 0 20" fill="none" stroke="#3b82f6" stroke-width="3" opacity="0.8"/><path d="M300 145 q18 10 0 20" fill="none" stroke="#22d3ee" stroke-width="3" opacity="0.8"/><path d="M300 165 q18 10 0 20" fill="none" stroke="#22d3ee" stroke-width="3" opacity="0.8"/><path d="M300 185 q18 10 0 20" fill="none" stroke="#22d3ee" stroke-width="3" opacity="0.8"/><path d="M300 205 q18 10 0 20" fill="none" stroke="#22d3ee" stroke-width="3" opacity="0.8"/><path d="M300 225 q18 10 0 20" fill="none" stroke="#22d3ee" stroke-width="3" opacity="0.8"/><g stroke="#22d3ee" stroke-width="2.5" stroke-linecap="round" opacity="0.85"><line x1="351" y1="222" x2="351" y2="210"/><line x1="351" y1="278" x2="351" y2="290"/><line x1="342" y1="231" x2="330" y2="231"/><line x1="398" y1="231" x2="410" y2="231"/><line x1="361" y1="222" x2="361" y2="210"/><line x1="361" y1="278" x2="361" y2="290"/><line x1="342" y1="241" x2="330" y2="241"/><line x1="398" y1="241" x2="410" y2="241"/><line x1="370" y1="222" x2="370" y2="210"/><line x1="370" y1="278" x2="370" y2="290"/><line x1="342" y1="250" x2="330" y2="250"/><line x1="398" y1="250" x2="410" y2="250"/><line x1="379" y1="222" x2="379" y2="210"/><line x1="379" y1="278" x2="379" y2="290"/><line x1="342" y1="259" x2="330" y2="259"/><line x1="398" y1="259" x2="410" y2="259"/><line x1="389" y1="222" x2="389" y2="210"/><line x1="389" y1="278" x2="389" y2="290"/><line x1="342" y1="269" x2="330" y2="269"/><line x1="398" y1="269" x2="410" y2="269"/></g><rect x="342" y="222" width="56" height="56" rx="12" fill="#0c1a30" stroke="#3b82f6" stroke-width="2.5"/><rect x="358" y="238" width="24" height="24" rx="6" fill="none" stroke="#8aa0bd" stroke-width="1.5" opacity="0.7"/><circle cx="368" cy="248" r="3" fill="#22d3ee"/>
</svg>
