<svg xmlns="http://www.w3.org/2000/svg" viewBox="0 0 640 360" width="640" height="360" role="img">
<defs>
<linearGradient id="bg" x1="0" y1="0" x2="1" y2="1">
  <stop offset="0" stop-color="#0a1322"/><stop offset="1" stop-color="#0f1f38"/>
</linearGradient>
<radialGradient id="glowB" cx="0.5" cy="0.5" r="0.5">
  <stop offset="0" stop-color="#3b82f6" stop-opacity="0.55"/><stop offset="1" stop-color="#3b82f6" stop-opacity="0"/>
</radialGradient>
<radialGradient id="glowC" cx="0.5" cy="0.5" r="0.5">
  <stop offset="0" stop-color="#22d3ee" stop-opacity="0.40"/><stop offset="1" stop-color="#22d3ee" stop-opacity="0"/>
</radialGradient>
<linearGradient id="screen" x1="0" y1="0" x2="0" y2="1">
  <stop offset="0" stop-color="#0c1a30"/><stop offset="1" stop-color="#0a1626"/>
</linearGradient>
</defs>
<rect width="640" height="360" rx="0" fill="url(#bg)"/>
<g stroke="#1c2c47" stroke-width="1" opacity="0.55"><line x1="40" y1="0" x2="40" y2="360" /><line x1="80" y1="0" x2="80" y2="360" /><line x1="120" y1="0" x2="120" y2="360" /><line x1="160" y1="0" x2="160" y2="360" /><line x1="200" y1="0" x2="200" y2="360" /><line x1="240" y1="0" x2="240" y2="360" /><line x1="280" y1="0" x2="280" y2="360" /><line x1="320" y1="0" x2="320" y2="360" /><line x1="360" y1="0" x2="360" y2="360" /><line x1="400" y1="0" x2="400" y2="360" /><line x1="440" y1="0" x2="440" y2="360" /><line x1="480" y1="0" x2="480" y2="360" /><line x1="520" y1="0" x2="520" y2="360" /><line x1="560" y1="0" x2="560" y2="360" /><line x1="600" y1="0" x2="600" y2="360" /><line x1="0" y1="40" x2="640" y2="40" /><line x1="0" y1="80" x2="640" y2="80" /><line x1="0" y1="120" x2="640" y2="120" /><line x1="0" y1="160" x2="640" y2="160" /><line x1="0" y1="200" x2="640" y2="200" /><line x1="0" y1="240" x2="640" y2="240" /><line x1="0" y1="280" x2="640" y2="280" /><line x1="0" y1="320" x2="640" y2="320" /></g>
<circle cx="166" cy="108" r="150" fill="url(#glowB)"/>
<circle cx="499" cy="259" r="170" fill="url(#glowC)"/>
<g stroke="#8aa0bd" stroke-width="2" opacity="0.5" stroke-linecap="round"><path d="M18 18 h18 M18 18 v18"/><path d="M622 18 h-18 M622 18 v18"/><path d="M18 342 h18 M18 342 v-18"/><path d="M622 342 h-18 M622 342 v-18"/></g>
<g font-family="ui-monospace,Menlo,monospace" font-size="13" font-weight="600"><rect x="24" y="316" width="358" height="26" rx="13" fill="#0a1322" opacity="0.65"/><circle cx="40" cy="329" r="3.5" fill="#22d3ee"/><text x="54" y="334" fill="#e8eef6" opacity="0.92">APPLIANCE CONTROL · 230V</text></g><rect x="140" y="90" width="360" height="200" rx="16" fill="url(#screen)" stroke="#1c2c47" stroke-width="2"/><g stroke-linecap="round"><path d="M154 140 h108 l24 -20 h144" fill="none" stroke="#3b82f6" stroke-width="2" opacity="0.55"/><path d="M154 190 h108 l24 -20 h144" fill="none" stroke="#3b82f6" stroke-width="2" opacity="0.55"/><path d="M154 240 h108 l24 -20 h144" fill="none" stroke="#3b82f6" stroke-width="2" opacity="0.55"/></g><circle cx="472" cy="268" r="4" fill="none" stroke="#22d3ee" stroke-width="2" opacity="0.8"/><circle cx="450" cy="268" r="4" fill="none" stroke="#22d3ee" stroke-width="2" opacity="0.8"/><circle cx="428" cy="268" r="4" fill="none" stroke="#22d3ee" stroke-width="2" opacity="0.8"/><circle cx="406" cy="268" r="4" fill="none" stroke="#22d3ee" stroke-width="2" opacity="0.8"/><circle cx="384" cy="268" r="4" fill="none" stroke="#22d3ee" stroke-width="2" opacity="0.8"/><g stroke="#22d3ee" stroke-width="2.5" stroke-linecap="round" opacity="0.85"><line x1="225" y1="152" x2="225" y2="140"/><line x1="225" y1="228" x2="225" y2="240"/><line x1="212" y1="165" x2="200" y2="165"/><line x1="288" y1="165" x2="300" y2="165"/><line x1="237" y1="152" x2="237" y2="140"/><line x1="237" y1="228" x2="237" y2="240"/><line x1="212" y1="177" x2="200" y2="177"/><line x1="288" y1="177" x2="300" y2="177"/><line x1="250" y1="152" x2="250" y2="140"/><line x1="250" y1="228" x2="250" y2="240"/><line x1="212" y1="190" x2="200" y2="190"/><line x1="288" y1="190" x2="300" y2="190"/><line x1="263" y1="152" x2="263" y2="140"/><line x1="263" y1="228" x2="263" y2="240"/><line x1="212" y1="203" x2="200" y2="203"/><line x1="288" y1="203" x2="300" y2="203"/><line x1="275" y1="152" x2="275" y2="140"/><line x1="275" y1="228" x2="275" y2="240"/><line x1="212" y1="215" x2="200" y2="215"/><line x1="288" y1="215" x2="300" y2="215"/></g><rect x="212" y="152" width="76" height="76" rx="12" fill="#0c1a30" stroke="#3b82f6" stroke-width="2.5"/><rect x="228" y="168" width="44" height="44" rx="6" fill="none" stroke="#8aa0bd" stroke-width="1.5" opacity="0.7"/><circle cx="238" cy="178" r="3" fill="#22d3ee"/><text x="250" y="195" text-anchor="middle" font-family="ui-monospace,monospace" font-size="13" font-weight="700" fill="#e8eef6" opacity="0.85">MCU</text><rect x="380" y="150" width="80" height="80" rx="10" fill="none" stroke="#22d3ee" stroke-width="2.5"/><circle cx="420" cy="190" r="22" fill="none" stroke="#3b82f6" stroke-width="3"/>
</svg>
