<svg xmlns="http://www.w3.org/2000/svg" viewBox="0 0 640 360" width="640" height="360" role="img">
<defs>
<linearGradient id="bg" x1="0" y1="0" x2="1" y2="1">
  <stop offset="0" stop-color="#0a1322"/><stop offset="1" stop-color="#0f1f38"/>
</linearGradient>
<radialGradient id="glowB" cx="0.5" cy="0.5" r="0.5">
  <stop offset="0" stop-color="#3b82f6" stop-opacity="0.55"/><stop offset="1" stop-color="#3b82f6" stop-opacity="0"/>
</radialGradient>
<radialGradient id="glowC" cx="0.5" cy="0.5" r="0.5">
  <stop offset="0" stop-color="#22d3ee" stop-opacity="0.40"/><stop offset="1" stop-color="#22d3ee" stop-opacity="0"/>
</radialGradient>
<linearGradient id="screen" x1="0" y1="0" x2="0" y2="1">
  <stop offset="0" stop-color="#0c1a30"/><stop offset="1" stop-color="#0a1626"/>
</linearGradient>
</defs>
<rect width="640" height="360" rx="0" fill="url(#bg)"/>
<g stroke="#1c2c47" stroke-width="1" opacity="0.55"><line x1="40" y1="0" x2="40" y2="360" /><line x1="80" y1="0" x2="80" y2="360" /><line x1="120" y1="0" x2="120" y2="360" /><line x1="160" y1="0" x2="160" y2="360" /><line x1="200" y1="0" x2="200" y2="360" /><line x1="240" y1="0" x2="240" y2="360" /><line x1="280" y1="0" x2="280" y2="360" /><line x1="320" y1="0" x2="320" y2="360" /><line x1="360" y1="0" x2="360" y2="360" /><line x1="400" y1="0" x2="400" y2="360" /><line x1="440" y1="0" x2="440" y2="360" /><line x1="480" y1="0" x2="480" y2="360" /><line x1="520" y1="0" x2="520" y2="360" /><line x1="560" y1="0" x2="560" y2="360" /><line x1="600" y1="0" x2="600" y2="360" /><line x1="0" y1="40" x2="640" y2="40" /><line x1="0" y1="80" x2="640" y2="80" /><line x1="0" y1="120" x2="640" y2="120" /><line x1="0" y1="160" x2="640" y2="160" /><line x1="0" y1="200" x2="640" y2="200" /><line x1="0" y1="240" x2="640" y2="240" /><line x1="0" y1="280" x2="640" y2="280" /><line x1="0" y1="320" x2="640" y2="320" /></g>
<circle cx="166" cy="108" r="150" fill="url(#glowB)"/>
<circle cx="499" cy="259" r="170" fill="url(#glowC)"/>
<g stroke="#8aa0bd" stroke-width="2" opacity="0.5" stroke-linecap="round"><path d="M18 18 h18 M18 18 v18"/><path d="M622 18 h-18 M622 18 v18"/><path d="M18 342 h18 M18 342 v-18"/><path d="M622 342 h-18 M622 342 v-18"/></g>
<g font-family="ui-monospace,Menlo,monospace" font-size="13" font-weight="600"><rect x="24" y="316" width="274" height="26" rx="13" fill="#0a1322" opacity="0.65"/><circle cx="40" cy="329" r="3.5" fill="#22d3ee"/><text x="54" y="334" fill="#e8eef6" opacity="0.92">POWER MOSFET · SiC</text></g><rect x="110" y="80" width="280" height="210" rx="16" fill="url(#screen)" stroke="#1c2c47" stroke-width="2"/><g stroke-linecap="round"><path d="M124 132 h84 l24 -20 h112" fill="none" stroke="#3b82f6" stroke-width="2" opacity="0.55"/><path d="M124 185 h84 l24 -20 h112" fill="none" stroke="#3b82f6" stroke-width="2" opacity="0.55"/><path d="M124 238 h84 l24 -20 h112" fill="none" stroke="#3b82f6" stroke-width="2" opacity="0.55"/></g><circle cx="362" cy="268" r="4" fill="none" stroke="#22d3ee" stroke-width="2" opacity="0.8"/><circle cx="340" cy="268" r="4" fill="none" stroke="#22d3ee" stroke-width="2" opacity="0.8"/><circle cx="318" cy="268" r="4" fill="none" stroke="#22d3ee" stroke-width="2" opacity="0.8"/><circle cx="296" cy="268" r="4" fill="none" stroke="#22d3ee" stroke-width="2" opacity="0.8"/><circle cx="274" cy="268" r="4" fill="none" stroke="#22d3ee" stroke-width="2" opacity="0.8"/><g stroke="#22d3ee" stroke-width="2.5" stroke-linecap="round" opacity="0.85"><line x1="218" y1="137" x2="218" y2="125"/><line x1="218" y1="233" x2="218" y2="245"/><line x1="202" y1="153" x2="190" y2="153"/><line x1="298" y1="153" x2="310" y2="153"/><line x1="234" y1="137" x2="234" y2="125"/><line x1="234" y1="233" x2="234" y2="245"/><line x1="202" y1="169" x2="190" y2="169"/><line x1="298" y1="169" x2="310" y2="169"/><line x1="250" y1="137" x2="250" y2="125"/><line x1="250" y1="233" x2="250" y2="245"/><line x1="202" y1="185" x2="190" y2="185"/><line x1="298" y1="185" x2="310" y2="185"/><line x1="266" y1="137" x2="266" y2="125"/><line x1="266" y1="233" x2="266" y2="245"/><line x1="202" y1="201" x2="190" y2="201"/><line x1="298" y1="201" x2="310" y2="201"/><line x1="282" y1="137" x2="282" y2="125"/><line x1="282" y1="233" x2="282" y2="245"/><line x1="202" y1="217" x2="190" y2="217"/><line x1="298" y1="217" x2="310" y2="217"/></g><rect x="202" y="137" width="96" height="96" rx="12" fill="#0c1a30" stroke="#3b82f6" stroke-width="2.5"/><rect x="218" y="153" width="64" height="64" rx="6" fill="none" stroke="#8aa0bd" stroke-width="1.5" opacity="0.7"/><circle cx="228" cy="163" r="3" fill="#22d3ee"/><text x="250" y="190" text-anchor="middle" font-family="ui-monospace,monospace" font-size="13" font-weight="700" fill="#e8eef6" opacity="0.85">MOSFET</text><rect x="420" y="120" width="150" height="130" rx="12" fill="url(#screen)" stroke="#3b82f6" stroke-width="2"/><g stroke="#1c2c47" stroke-width="1" opacity="0.8"><line x1="445" y1="120" x2="445" y2="250"/><line x1="470" y1="120" x2="470" y2="250"/><line x1="495" y1="120" x2="495" y2="250"/><line x1="520" y1="120" x2="520" y2="250"/><line x1="545" y1="120" x2="545" y2="250"/><line x1="420" y1="152" x2="570" y2="152"/><line x1="420" y1="185" x2="570" y2="185"/><line x1="420" y1="218" x2="570" y2="218"/></g><path d="M432 185 h126" stroke="#8aa0bd" stroke-width="1" opacity="0.4"/><path d="M432 185 L432 153 L448 153 L448 217 L464 217 L464 153 L479 153 L479 217 L495 217 L495 153 L511 153 L511 217 L526 217 L526 153 L542 153 L542 217 L558 217" fill="none" stroke="#22d3ee" stroke-width="3" stroke-linecap="round" stroke-linejoin="round"/>
</svg>
