<svg xmlns="http://www.w3.org/2000/svg" viewBox="0 0 640 360" width="640" height="360" role="img">
<defs>
<linearGradient id="bg" x1="0" y1="0" x2="1" y2="1">
  <stop offset="0" stop-color="#0a1322"/><stop offset="1" stop-color="#0f1f38"/>
</linearGradient>
<radialGradient id="glowB" cx="0.5" cy="0.5" r="0.5">
  <stop offset="0" stop-color="#3b82f6" stop-opacity="0.55"/><stop offset="1" stop-color="#3b82f6" stop-opacity="0"/>
</radialGradient>
<radialGradient id="glowC" cx="0.5" cy="0.5" r="0.5">
  <stop offset="0" stop-color="#22d3ee" stop-opacity="0.40"/><stop offset="1" stop-color="#22d3ee" stop-opacity="0"/>
</radialGradient>
<linearGradient id="screen" x1="0" y1="0" x2="0" y2="1">
  <stop offset="0" stop-color="#0c1a30"/><stop offset="1" stop-color="#0a1626"/>
</linearGradient>
</defs>
<rect width="640" height="360" rx="0" fill="url(#bg)"/>
<g stroke="#1c2c47" stroke-width="1" opacity="0.55"><line x1="40" y1="0" x2="40" y2="360" /><line x1="80" y1="0" x2="80" y2="360" /><line x1="120" y1="0" x2="120" y2="360" /><line x1="160" y1="0" x2="160" y2="360" /><line x1="200" y1="0" x2="200" y2="360" /><line x1="240" y1="0" x2="240" y2="360" /><line x1="280" y1="0" x2="280" y2="360" /><line x1="320" y1="0" x2="320" y2="360" /><line x1="360" y1="0" x2="360" y2="360" /><line x1="400" y1="0" x2="400" y2="360" /><line x1="440" y1="0" x2="440" y2="360" /><line x1="480" y1="0" x2="480" y2="360" /><line x1="520" y1="0" x2="520" y2="360" /><line x1="560" y1="0" x2="560" y2="360" /><line x1="600" y1="0" x2="600" y2="360" /><line x1="0" y1="40" x2="640" y2="40" /><line x1="0" y1="80" x2="640" y2="80" /><line x1="0" y1="120" x2="640" y2="120" /><line x1="0" y1="160" x2="640" y2="160" /><line x1="0" y1="200" x2="640" y2="200" /><line x1="0" y1="240" x2="640" y2="240" /><line x1="0" y1="280" x2="640" y2="280" /><line x1="0" y1="320" x2="640" y2="320" /></g>
<circle cx="166" cy="108" r="150" fill="url(#glowB)"/>
<circle cx="499" cy="259" r="170" fill="url(#glowC)"/>
<g stroke="#8aa0bd" stroke-width="2" opacity="0.5" stroke-linecap="round"><path d="M18 18 h18 M18 18 v18"/><path d="M622 18 h-18 M622 18 v18"/><path d="M18 342 h18 M18 342 v-18"/><path d="M622 342 h-18 M622 342 v-18"/></g>
<g font-family="ui-monospace,Menlo,monospace" font-size="13" font-weight="600"><rect x="24" y="316" width="232" height="26" rx="13" fill="#0a1322" opacity="0.65"/><circle cx="40" cy="329" r="3.5" fill="#22d3ee"/><text x="54" y="334" fill="#e8eef6" opacity="0.92">MLCC · PASSIVES</text></g><rect x="150" y="120" width="80" height="56" rx="8" fill="url(#screen)" stroke="#22d3ee" stroke-width="2" opacity="0.6"/><rect x="168" y="128" width="80" height="56" rx="8" fill="url(#screen)" stroke="#22d3ee" stroke-width="2" opacity="0.72"/><rect x="186" y="136" width="80" height="56" rx="8" fill="url(#screen)" stroke="#22d3ee" stroke-width="2" opacity="0.84"/><rect x="204" y="144" width="80" height="56" rx="8" fill="url(#screen)" stroke="#22d3ee" stroke-width="2" opacity="0.96"/><rect x="360" y="170" width="150" height="46" rx="23" fill="url(#screen)" stroke="#3b82f6" stroke-width="2.5"/><rect x="390" y="176" width="8" height="34" rx="3" fill="#22d3ee" opacity="0.85"/><rect x="410" y="176" width="8" height="34" rx="3" fill="#3b82f6" opacity="0.85"/><rect x="430" y="176" width="8" height="34" rx="3" fill="#8aa0bd" opacity="0.85"/><rect x="450" y="176" width="8" height="34" rx="3" fill="#22d3ee" opacity="0.85"/><line x1="334" y1="193" x2="360" y2="193" stroke="#8aa0bd" stroke-width="3"/><line x1="510" y1="193" x2="536" y2="193" stroke="#8aa0bd" stroke-width="3"/>
</svg>
