<svg xmlns="http://www.w3.org/2000/svg" viewBox="0 0 640 360" width="640" height="360" role="img">
<defs>
<linearGradient id="bg" x1="0" y1="0" x2="1" y2="1">
  <stop offset="0" stop-color="#0a1322"/><stop offset="1" stop-color="#0f1f38"/>
</linearGradient>
<radialGradient id="glowB" cx="0.5" cy="0.5" r="0.5">
  <stop offset="0" stop-color="#3b82f6" stop-opacity="0.55"/><stop offset="1" stop-color="#3b82f6" stop-opacity="0"/>
</radialGradient>
<radialGradient id="glowC" cx="0.5" cy="0.5" r="0.5">
  <stop offset="0" stop-color="#22d3ee" stop-opacity="0.40"/><stop offset="1" stop-color="#22d3ee" stop-opacity="0"/>
</radialGradient>
<linearGradient id="screen" x1="0" y1="0" x2="0" y2="1">
  <stop offset="0" stop-color="#0c1a30"/><stop offset="1" stop-color="#0a1626"/>
</linearGradient>
</defs>
<rect width="640" height="360" rx="0" fill="url(#bg)"/>
<g stroke="#1c2c47" stroke-width="1" opacity="0.55"><line x1="40" y1="0" x2="40" y2="360" /><line x1="80" y1="0" x2="80" y2="360" /><line x1="120" y1="0" x2="120" y2="360" /><line x1="160" y1="0" x2="160" y2="360" /><line x1="200" y1="0" x2="200" y2="360" /><line x1="240" y1="0" x2="240" y2="360" /><line x1="280" y1="0" x2="280" y2="360" /><line x1="320" y1="0" x2="320" y2="360" /><line x1="360" y1="0" x2="360" y2="360" /><line x1="400" y1="0" x2="400" y2="360" /><line x1="440" y1="0" x2="440" y2="360" /><line x1="480" y1="0" x2="480" y2="360" /><line x1="520" y1="0" x2="520" y2="360" /><line x1="560" y1="0" x2="560" y2="360" /><line x1="600" y1="0" x2="600" y2="360" /><line x1="0" y1="40" x2="640" y2="40" /><line x1="0" y1="80" x2="640" y2="80" /><line x1="0" y1="120" x2="640" y2="120" /><line x1="0" y1="160" x2="640" y2="160" /><line x1="0" y1="200" x2="640" y2="200" /><line x1="0" y1="240" x2="640" y2="240" /><line x1="0" y1="280" x2="640" y2="280" /><line x1="0" y1="320" x2="640" y2="320" /></g>
<circle cx="166" cy="108" r="150" fill="url(#glowB)"/>
<circle cx="499" cy="259" r="170" fill="url(#glowC)"/>
<g stroke="#8aa0bd" stroke-width="2" opacity="0.5" stroke-linecap="round"><path d="M18 18 h18 M18 18 v18"/><path d="M622 18 h-18 M622 18 v18"/><path d="M18 342 h18 M18 342 v-18"/><path d="M622 342 h-18 M622 342 v-18"/></g>
<g font-family="ui-monospace,Menlo,monospace" font-size="13" font-weight="600"><rect x="24" y="316" width="246" height="26" rx="13" fill="#0a1322" opacity="0.65"/><circle cx="40" cy="329" r="3.5" fill="#22d3ee"/><text x="54" y="334" fill="#e8eef6" opacity="0.92">LAB · TEST BENCH</text></g><rect x="140" y="80" width="380" height="200" rx="12" fill="url(#screen)" stroke="#3b82f6" stroke-width="2"/><g stroke="#1c2c47" stroke-width="1" opacity="0.8"><line x1="203" y1="80" x2="203" y2="280"/><line x1="267" y1="80" x2="267" y2="280"/><line x1="330" y1="80" x2="330" y2="280"/><line x1="393" y1="80" x2="393" y2="280"/><line x1="457" y1="80" x2="457" y2="280"/><line x1="140" y1="130" x2="520" y2="130"/><line x1="140" y1="180" x2="520" y2="180"/><line x1="140" y1="230" x2="520" y2="230"/></g><path d="M152 180 h356" stroke="#8aa0bd" stroke-width="1" opacity="0.4"/><path d="M152,180 L160,162 L168,145 L176,130 L184,120 L192,115 L200,114 L208,119 L216,129 L224,143 L232,159 L240,178 L248,196 L256,213 L264,228 L272,239 L280,245 L288,246 L296,242 L304,233 L312,219 L320,203 L328,185 L336,166 L344,149 L352,134 L360,122 L368,115 L376,114 L384,117 L392,126 L400,139 L408,155 L416,173 L424,192 L432,209 L440,225 L448,237 L456,244 L464,246 L472,243 L480,235 L488,223 L496,207 L504,189" fill="none" stroke="#22d3ee" stroke-width="3" stroke-linecap="round" stroke-linejoin="round"/><rect x="140" y="292" width="380" height="22" rx="8" fill="#0c1a30" stroke="#1c2c47" stroke-width="2"/><circle cx="170" cy="303" r="6" fill="#3b82f6" opacity="0.6"/><circle cx="210" cy="303" r="6" fill="#3b82f6" opacity="0.6"/><circle cx="250" cy="303" r="6" fill="#3b82f6" opacity="0.6"/><circle cx="290" cy="303" r="6" fill="#3b82f6" opacity="0.6"/>
</svg>
