<svg xmlns="http://www.w3.org/2000/svg" viewBox="0 0 640 360" width="640" height="360" role="img">
<defs>
<linearGradient id="bg" x1="0" y1="0" x2="1" y2="1">
  <stop offset="0" stop-color="#0a1322"/><stop offset="1" stop-color="#0f1f38"/>
</linearGradient>
<radialGradient id="glowB" cx="0.5" cy="0.5" r="0.5">
  <stop offset="0" stop-color="#3b82f6" stop-opacity="0.55"/><stop offset="1" stop-color="#3b82f6" stop-opacity="0"/>
</radialGradient>
<radialGradient id="glowC" cx="0.5" cy="0.5" r="0.5">
  <stop offset="0" stop-color="#22d3ee" stop-opacity="0.40"/><stop offset="1" stop-color="#22d3ee" stop-opacity="0"/>
</radialGradient>
<linearGradient id="screen" x1="0" y1="0" x2="0" y2="1">
  <stop offset="0" stop-color="#0c1a30"/><stop offset="1" stop-color="#0a1626"/>
</linearGradient>
</defs>
<rect width="640" height="360" rx="0" fill="url(#bg)"/>
<g stroke="#1c2c47" stroke-width="1" opacity="0.55"><line x1="40" y1="0" x2="40" y2="360" /><line x1="80" y1="0" x2="80" y2="360" /><line x1="120" y1="0" x2="120" y2="360" /><line x1="160" y1="0" x2="160" y2="360" /><line x1="200" y1="0" x2="200" y2="360" /><line x1="240" y1="0" x2="240" y2="360" /><line x1="280" y1="0" x2="280" y2="360" /><line x1="320" y1="0" x2="320" y2="360" /><line x1="360" y1="0" x2="360" y2="360" /><line x1="400" y1="0" x2="400" y2="360" /><line x1="440" y1="0" x2="440" y2="360" /><line x1="480" y1="0" x2="480" y2="360" /><line x1="520" y1="0" x2="520" y2="360" /><line x1="560" y1="0" x2="560" y2="360" /><line x1="600" y1="0" x2="600" y2="360" /><line x1="0" y1="40" x2="640" y2="40" /><line x1="0" y1="80" x2="640" y2="80" /><line x1="0" y1="120" x2="640" y2="120" /><line x1="0" y1="160" x2="640" y2="160" /><line x1="0" y1="200" x2="640" y2="200" /><line x1="0" y1="240" x2="640" y2="240" /><line x1="0" y1="280" x2="640" y2="280" /><line x1="0" y1="320" x2="640" y2="320" /></g>
<circle cx="166" cy="108" r="150" fill="url(#glowB)"/>
<circle cx="499" cy="259" r="170" fill="url(#glowC)"/>
<g stroke="#8aa0bd" stroke-width="2" opacity="0.5" stroke-linecap="round"><path d="M18 18 h18 M18 18 v18"/><path d="M622 18 h-18 M622 18 v18"/><path d="M18 342 h18 M18 342 v-18"/><path d="M622 342 h-18 M622 342 v-18"/></g>
<g font-family="ui-monospace,Menlo,monospace" font-size="13" font-weight="600"><rect x="24" y="316" width="316" height="26" rx="13" fill="#0a1322" opacity="0.65"/><circle cx="40" cy="329" r="3.5" fill="#22d3ee"/><text x="54" y="334" fill="#e8eef6" opacity="0.92">SEMICONDUCTOR · WAFER</text></g><circle cx="230" cy="185" r="95" fill="url(#screen)" stroke="#8aa0bd" stroke-width="2"/><clipPath id="wfc"><circle cx="230" cy="185" r="91"/></clipPath><g clip-path="url(#wfc)"><rect x="142" y="175" width="20" height="20" rx="3" fill="#3b82f6" fill-opacity="0.18" stroke="#22d3ee" stroke-width="1" stroke-opacity="0.5"/><rect x="168" y="123" width="20" height="20" rx="3" fill="#3b82f6" fill-opacity="0.18" stroke="#22d3ee" stroke-width="1" stroke-opacity="0.5"/><rect x="168" y="149" width="20" height="20" rx="3" fill="#3b82f6" fill-opacity="0.18" stroke="#22d3ee" stroke-width="1" stroke-opacity="0.5"/><rect x="168" y="175" width="20" height="20" rx="3" fill="#3b82f6" fill-opacity="0.18" stroke="#22d3ee" stroke-width="1" stroke-opacity="0.5"/><rect x="168" y="201" width="20" height="20" rx="3" fill="#3b82f6" fill-opacity="0.18" stroke="#22d3ee" stroke-width="1" stroke-opacity="0.5"/><rect x="168" y="227" width="20" height="20" rx="3" fill="#3b82f6" fill-opacity="0.18" stroke="#22d3ee" stroke-width="1" stroke-opacity="0.5"/><rect x="194" y="123" width="20" height="20" rx="3" fill="#3b82f6" fill-opacity="0.18" stroke="#22d3ee" stroke-width="1" stroke-opacity="0.5"/><rect x="194" y="149" width="20" height="20" rx="3" fill="#3b82f6" fill-opacity="0.18" stroke="#22d3ee" stroke-width="1" stroke-opacity="0.5"/><rect x="194" y="175" width="20" height="20" rx="3" fill="#3b82f6" fill-opacity="0.18" stroke="#22d3ee" stroke-width="1" stroke-opacity="0.5"/><rect x="194" y="201" width="20" height="20" rx="3" fill="#3b82f6" fill-opacity="0.18" stroke="#22d3ee" stroke-width="1" stroke-opacity="0.5"/><rect x="194" y="227" width="20" height="20" rx="3" fill="#3b82f6" fill-opacity="0.18" stroke="#22d3ee" stroke-width="1" stroke-opacity="0.5"/><rect x="220" y="97" width="20" height="20" rx="3" fill="#3b82f6" fill-opacity="0.18" stroke="#22d3ee" stroke-width="1" stroke-opacity="0.5"/><rect x="220" y="123" width="20" height="20" rx="3" fill="#3b82f6" fill-opacity="0.18" stroke="#22d3ee" stroke-width="1" stroke-opacity="0.5"/><rect x="220" y="149" width="20" height="20" rx="3" fill="#3b82f6" fill-opacity="0.18" stroke="#22d3ee" stroke-width="1" stroke-opacity="0.5"/><rect x="220" y="175" width="20" height="20" rx="3" fill="#3b82f6" fill-opacity="0.18" stroke="#22d3ee" stroke-width="1" stroke-opacity="0.5"/><rect x="220" y="201" width="20" height="20" rx="3" fill="#3b82f6" fill-opacity="0.18" stroke="#22d3ee" stroke-width="1" stroke-opacity="0.5"/><rect x="220" y="227" width="20" height="20" rx="3" fill="#3b82f6" fill-opacity="0.18" stroke="#22d3ee" stroke-width="1" stroke-opacity="0.5"/><rect x="220" y="253" width="20" height="20" rx="3" fill="#3b82f6" fill-opacity="0.18" stroke="#22d3ee" stroke-width="1" stroke-opacity="0.5"/><rect x="246" y="123" width="20" height="20" rx="3" fill="#3b82f6" fill-opacity="0.18" stroke="#22d3ee" stroke-width="1" stroke-opacity="0.5"/><rect x="246" y="149" width="20" height="20" rx="3" fill="#3b82f6" fill-opacity="0.18" stroke="#22d3ee" stroke-width="1" stroke-opacity="0.5"/><rect x="246" y="175" width="20" height="20" rx="3" fill="#3b82f6" fill-opacity="0.18" stroke="#22d3ee" stroke-width="1" stroke-opacity="0.5"/><rect x="246" y="201" width="20" height="20" rx="3" fill="#3b82f6" fill-opacity="0.18" stroke="#22d3ee" stroke-width="1" stroke-opacity="0.5"/><rect x="246" y="227" width="20" height="20" rx="3" fill="#3b82f6" fill-opacity="0.18" stroke="#22d3ee" stroke-width="1" stroke-opacity="0.5"/><rect x="272" y="123" width="20" height="20" rx="3" fill="#3b82f6" fill-opacity="0.18" stroke="#22d3ee" stroke-width="1" stroke-opacity="0.5"/><rect x="272" y="149" width="20" height="20" rx="3" fill="#3b82f6" fill-opacity="0.18" stroke="#22d3ee" stroke-width="1" stroke-opacity="0.5"/><rect x="272" y="175" width="20" height="20" rx="3" fill="#3b82f6" fill-opacity="0.18" stroke="#22d3ee" stroke-width="1" stroke-opacity="0.5"/><rect x="272" y="201" width="20" height="20" rx="3" fill="#3b82f6" fill-opacity="0.18" stroke="#22d3ee" stroke-width="1" stroke-opacity="0.5"/><rect x="272" y="227" width="20" height="20" rx="3" fill="#3b82f6" fill-opacity="0.18" stroke="#22d3ee" stroke-width="1" stroke-opacity="0.5"/><rect x="298" y="175" width="20" height="20" rx="3" fill="#3b82f6" fill-opacity="0.18" stroke="#22d3ee" stroke-width="1" stroke-opacity="0.5"/></g><line x1="287" y1="259" x2="320" y2="232" stroke="#22d3ee" stroke-width="3"/><g stroke="#22d3ee" stroke-width="2.5" stroke-linecap="round" opacity="0.85"><line x1="441" y1="141" x2="441" y2="129"/><line x1="441" y1="229" x2="441" y2="241"/><line x1="426" y1="156" x2="414" y2="156"/><line x1="514" y1="156" x2="526" y2="156"/><line x1="455" y1="141" x2="455" y2="129"/><line x1="455" y1="229" x2="455" y2="241"/><line x1="426" y1="170" x2="414" y2="170"/><line x1="514" y1="170" x2="526" y2="170"/><line x1="470" y1="141" x2="470" y2="129"/><line x1="470" y1="229" x2="470" y2="241"/><line x1="426" y1="185" x2="414" y2="185"/><line x1="514" y1="185" x2="526" y2="185"/><line x1="485" y1="141" x2="485" y2="129"/><line x1="485" y1="229" x2="485" y2="241"/><line x1="426" y1="200" x2="414" y2="200"/><line x1="514" y1="200" x2="526" y2="200"/><line x1="499" y1="141" x2="499" y2="129"/><line x1="499" y1="229" x2="499" y2="241"/><line x1="426" y1="214" x2="414" y2="214"/><line x1="514" y1="214" x2="526" y2="214"/></g><rect x="426" y="141" width="88" height="88" rx="12" fill="#0c1a30" stroke="#3b82f6" stroke-width="2.5"/><rect x="442" y="157" width="56" height="56" rx="6" fill="none" stroke="#8aa0bd" stroke-width="1.5" opacity="0.7"/><circle cx="452" cy="167" r="3" fill="#22d3ee"/><text x="470" y="190" text-anchor="middle" font-family="ui-monospace,monospace" font-size="13" font-weight="700" fill="#e8eef6" opacity="0.85">IC</text>
</svg>
