<svg xmlns="http://www.w3.org/2000/svg" viewBox="0 0 640 360" width="640" height="360" role="img">
<defs>
<linearGradient id="bg" x1="0" y1="0" x2="1" y2="1">
  <stop offset="0" stop-color="#0a1322"/><stop offset="1" stop-color="#0f1f38"/>
</linearGradient>
<radialGradient id="glowB" cx="0.5" cy="0.5" r="0.5">
  <stop offset="0" stop-color="#3b82f6" stop-opacity="0.55"/><stop offset="1" stop-color="#3b82f6" stop-opacity="0"/>
</radialGradient>
<radialGradient id="glowC" cx="0.5" cy="0.5" r="0.5">
  <stop offset="0" stop-color="#22d3ee" stop-opacity="0.40"/><stop offset="1" stop-color="#22d3ee" stop-opacity="0"/>
</radialGradient>
<linearGradient id="screen" x1="0" y1="0" x2="0" y2="1">
  <stop offset="0" stop-color="#0c1a30"/><stop offset="1" stop-color="#0a1626"/>
</linearGradient>
</defs>
<rect width="640" height="360" rx="0" fill="url(#bg)"/>
<g stroke="#1c2c47" stroke-width="1" opacity="0.55"><line x1="40" y1="0" x2="40" y2="360" /><line x1="80" y1="0" x2="80" y2="360" /><line x1="120" y1="0" x2="120" y2="360" /><line x1="160" y1="0" x2="160" y2="360" /><line x1="200" y1="0" x2="200" y2="360" /><line x1="240" y1="0" x2="240" y2="360" /><line x1="280" y1="0" x2="280" y2="360" /><line x1="320" y1="0" x2="320" y2="360" /><line x1="360" y1="0" x2="360" y2="360" /><line x1="400" y1="0" x2="400" y2="360" /><line x1="440" y1="0" x2="440" y2="360" /><line x1="480" y1="0" x2="480" y2="360" /><line x1="520" y1="0" x2="520" y2="360" /><line x1="560" y1="0" x2="560" y2="360" /><line x1="600" y1="0" x2="600" y2="360" /><line x1="0" y1="40" x2="640" y2="40" /><line x1="0" y1="80" x2="640" y2="80" /><line x1="0" y1="120" x2="640" y2="120" /><line x1="0" y1="160" x2="640" y2="160" /><line x1="0" y1="200" x2="640" y2="200" /><line x1="0" y1="240" x2="640" y2="240" /><line x1="0" y1="280" x2="640" y2="280" /><line x1="0" y1="320" x2="640" y2="320" /></g>
<circle cx="166" cy="108" r="150" fill="url(#glowB)"/>
<circle cx="499" cy="259" r="170" fill="url(#glowC)"/>
<g stroke="#8aa0bd" stroke-width="2" opacity="0.5" stroke-linecap="round"><path d="M18 18 h18 M18 18 v18"/><path d="M622 18 h-18 M622 18 v18"/><path d="M18 342 h18 M18 342 v-18"/><path d="M622 342 h-18 M622 342 v-18"/></g>
<g font-family="ui-monospace,Menlo,monospace" font-size="13" font-weight="600"><rect x="24" y="316" width="232" height="26" rx="13" fill="#0a1322" opacity="0.65"/><circle cx="40" cy="329" r="3.5" fill="#22d3ee"/><text x="54" y="334" fill="#e8eef6" opacity="0.92">PCBA · EMS LINE</text></g><rect x="150" y="90" width="360" height="200" rx="16" fill="url(#screen)" stroke="#1c2c47" stroke-width="2"/><g stroke-linecap="round"><path d="M164 140 h108 l24 -20 h144" fill="none" stroke="#3b82f6" stroke-width="2" opacity="0.55"/><path d="M164 190 h108 l24 -20 h144" fill="none" stroke="#3b82f6" stroke-width="2" opacity="0.55"/><path d="M164 240 h108 l24 -20 h144" fill="none" stroke="#3b82f6" stroke-width="2" opacity="0.55"/></g><circle cx="482" cy="268" r="4" fill="none" stroke="#22d3ee" stroke-width="2" opacity="0.8"/><circle cx="460" cy="268" r="4" fill="none" stroke="#22d3ee" stroke-width="2" opacity="0.8"/><circle cx="438" cy="268" r="4" fill="none" stroke="#22d3ee" stroke-width="2" opacity="0.8"/><circle cx="416" cy="268" r="4" fill="none" stroke="#22d3ee" stroke-width="2" opacity="0.8"/><circle cx="394" cy="268" r="4" fill="none" stroke="#22d3ee" stroke-width="2" opacity="0.8"/><g stroke="#22d3ee" stroke-width="2.5" stroke-linecap="round" opacity="0.85"><line x1="298" y1="142" x2="298" y2="130"/><line x1="298" y1="238" x2="298" y2="250"/><line x1="282" y1="158" x2="270" y2="158"/><line x1="378" y1="158" x2="390" y2="158"/><line x1="314" y1="142" x2="314" y2="130"/><line x1="314" y1="238" x2="314" y2="250"/><line x1="282" y1="174" x2="270" y2="174"/><line x1="378" y1="174" x2="390" y2="174"/><line x1="330" y1="142" x2="330" y2="130"/><line x1="330" y1="238" x2="330" y2="250"/><line x1="282" y1="190" x2="270" y2="190"/><line x1="378" y1="190" x2="390" y2="190"/><line x1="346" y1="142" x2="346" y2="130"/><line x1="346" y1="238" x2="346" y2="250"/><line x1="282" y1="206" x2="270" y2="206"/><line x1="378" y1="206" x2="390" y2="206"/><line x1="362" y1="142" x2="362" y2="130"/><line x1="362" y1="238" x2="362" y2="250"/><line x1="282" y1="222" x2="270" y2="222"/><line x1="378" y1="222" x2="390" y2="222"/></g><rect x="282" y="142" width="96" height="96" rx="12" fill="#0c1a30" stroke="#3b82f6" stroke-width="2.5"/><rect x="298" y="158" width="64" height="64" rx="6" fill="none" stroke="#8aa0bd" stroke-width="1.5" opacity="0.7"/><circle cx="308" cy="168" r="3" fill="#22d3ee"/><text x="330" y="195" text-anchor="middle" font-family="ui-monospace,monospace" font-size="13" font-weight="700" fill="#e8eef6" opacity="0.85">MCU</text><g stroke="#22d3ee" stroke-width="2" opacity="0.7"><rect x="180" y="120" width="26" height="14" rx="3" fill="none"/><rect x="240" y="120" width="26" height="14" rx="3" fill="none"/></g>
</svg>
