<svg xmlns="http://www.w3.org/2000/svg" viewBox="0 0 640 360" width="640" height="360" role="img">
<defs>
<linearGradient id="bg" x1="0" y1="0" x2="1" y2="1">
  <stop offset="0" stop-color="#0a1322"/><stop offset="1" stop-color="#0f1f38"/>
</linearGradient>
<radialGradient id="glowB" cx="0.5" cy="0.5" r="0.5">
  <stop offset="0" stop-color="#3b82f6" stop-opacity="0.55"/><stop offset="1" stop-color="#3b82f6" stop-opacity="0"/>
</radialGradient>
<radialGradient id="glowC" cx="0.5" cy="0.5" r="0.5">
  <stop offset="0" stop-color="#22d3ee" stop-opacity="0.40"/><stop offset="1" stop-color="#22d3ee" stop-opacity="0"/>
</radialGradient>
<linearGradient id="screen" x1="0" y1="0" x2="0" y2="1">
  <stop offset="0" stop-color="#0c1a30"/><stop offset="1" stop-color="#0a1626"/>
</linearGradient>
</defs>
<rect width="640" height="360" rx="0" fill="url(#bg)"/>
<g stroke="#1c2c47" stroke-width="1" opacity="0.55"><line x1="40" y1="0" x2="40" y2="360" /><line x1="80" y1="0" x2="80" y2="360" /><line x1="120" y1="0" x2="120" y2="360" /><line x1="160" y1="0" x2="160" y2="360" /><line x1="200" y1="0" x2="200" y2="360" /><line x1="240" y1="0" x2="240" y2="360" /><line x1="280" y1="0" x2="280" y2="360" /><line x1="320" y1="0" x2="320" y2="360" /><line x1="360" y1="0" x2="360" y2="360" /><line x1="400" y1="0" x2="400" y2="360" /><line x1="440" y1="0" x2="440" y2="360" /><line x1="480" y1="0" x2="480" y2="360" /><line x1="520" y1="0" x2="520" y2="360" /><line x1="560" y1="0" x2="560" y2="360" /><line x1="600" y1="0" x2="600" y2="360" /><line x1="0" y1="40" x2="640" y2="40" /><line x1="0" y1="80" x2="640" y2="80" /><line x1="0" y1="120" x2="640" y2="120" /><line x1="0" y1="160" x2="640" y2="160" /><line x1="0" y1="200" x2="640" y2="200" /><line x1="0" y1="240" x2="640" y2="240" /><line x1="0" y1="280" x2="640" y2="280" /><line x1="0" y1="320" x2="640" y2="320" /></g>
<circle cx="166" cy="108" r="150" fill="url(#glowB)"/>
<circle cx="499" cy="259" r="170" fill="url(#glowC)"/>
<g stroke="#8aa0bd" stroke-width="2" opacity="0.5" stroke-linecap="round"><path d="M18 18 h18 M18 18 v18"/><path d="M622 18 h-18 M622 18 v18"/><path d="M18 342 h18 M18 342 v-18"/><path d="M622 342 h-18 M622 342 v-18"/></g>
<g font-family="ui-monospace,Menlo,monospace" font-size="13" font-weight="600"><rect x="24" y="316" width="288" height="26" rx="13" fill="#0a1322" opacity="0.65"/><circle cx="40" cy="329" r="3.5" fill="#22d3ee"/><text x="54" y="334" fill="#e8eef6" opacity="0.92">PRECISION SMU · I-V</text></g><rect x="120" y="80" width="250" height="210" rx="12" fill="url(#screen)" stroke="#3b82f6" stroke-width="2"/><g stroke="#1c2c47" stroke-width="1" opacity="0.8"><line x1="162" y1="80" x2="162" y2="290"/><line x1="203" y1="80" x2="203" y2="290"/><line x1="245" y1="80" x2="245" y2="290"/><line x1="287" y1="80" x2="287" y2="290"/><line x1="328" y1="80" x2="328" y2="290"/><line x1="120" y1="132" x2="370" y2="132"/><line x1="120" y1="185" x2="370" y2="185"/><line x1="120" y1="238" x2="370" y2="238"/></g><path d="M132 185 h226" stroke="#8aa0bd" stroke-width="1" opacity="0.4"/><path d="M132,185 L140,155 L148,131 L156,117 L164,117 L172,130 L180,153 L188,183 L196,213 L204,238 L212,252 L220,254 L228,242 L236,219 L244,189 L252,158 L260,133 L268,118 L276,116 L284,127 L292,150 L300,179 L308,210 L316,235 L324,251 L332,254 L340,244 L348,222 L356,193" fill="none" stroke="#22d3ee" stroke-width="3" stroke-linecap="round" stroke-linejoin="round"/><path d="M150 250 C 230 250 250 130 360 110" fill="none" stroke="#22d3ee" stroke-width="3"/><g stroke="#22d3ee" stroke-width="2.5" stroke-linecap="round" opacity="0.85"><line x1="433" y1="145" x2="433" y2="133"/><line x1="433" y1="225" x2="433" y2="237"/><line x1="420" y1="158" x2="408" y2="158"/><line x1="500" y1="158" x2="512" y2="158"/><line x1="447" y1="145" x2="447" y2="133"/><line x1="447" y1="225" x2="447" y2="237"/><line x1="420" y1="172" x2="408" y2="172"/><line x1="500" y1="172" x2="512" y2="172"/><line x1="460" y1="145" x2="460" y2="133"/><line x1="460" y1="225" x2="460" y2="237"/><line x1="420" y1="185" x2="408" y2="185"/><line x1="500" y1="185" x2="512" y2="185"/><line x1="473" y1="145" x2="473" y2="133"/><line x1="473" y1="225" x2="473" y2="237"/><line x1="420" y1="198" x2="408" y2="198"/><line x1="500" y1="198" x2="512" y2="198"/><line x1="487" y1="145" x2="487" y2="133"/><line x1="487" y1="225" x2="487" y2="237"/><line x1="420" y1="212" x2="408" y2="212"/><line x1="500" y1="212" x2="512" y2="212"/></g><rect x="420" y="145" width="80" height="80" rx="12" fill="#0c1a30" stroke="#3b82f6" stroke-width="2.5"/><rect x="436" y="161" width="48" height="48" rx="6" fill="none" stroke="#8aa0bd" stroke-width="1.5" opacity="0.7"/><circle cx="446" cy="171" r="3" fill="#22d3ee"/><text x="460" y="190" text-anchor="middle" font-family="ui-monospace,monospace" font-size="13" font-weight="700" fill="#e8eef6" opacity="0.85">DUT</text>
</svg>
