<svg xmlns="http://www.w3.org/2000/svg" viewBox="0 0 640 360" width="640" height="360" role="img">
<defs>
<linearGradient id="bg" x1="0" y1="0" x2="1" y2="1">
  <stop offset="0" stop-color="#0a1322"/><stop offset="1" stop-color="#0f1f38"/>
</linearGradient>
<radialGradient id="glowB" cx="0.5" cy="0.5" r="0.5">
  <stop offset="0" stop-color="#3b82f6" stop-opacity="0.55"/><stop offset="1" stop-color="#3b82f6" stop-opacity="0"/>
</radialGradient>
<radialGradient id="glowC" cx="0.5" cy="0.5" r="0.5">
  <stop offset="0" stop-color="#22d3ee" stop-opacity="0.40"/><stop offset="1" stop-color="#22d3ee" stop-opacity="0"/>
</radialGradient>
<linearGradient id="screen" x1="0" y1="0" x2="0" y2="1">
  <stop offset="0" stop-color="#0c1a30"/><stop offset="1" stop-color="#0a1626"/>
</linearGradient>
</defs>
<rect width="640" height="360" rx="0" fill="url(#bg)"/>
<g stroke="#1c2c47" stroke-width="1" opacity="0.55"><line x1="40" y1="0" x2="40" y2="360" /><line x1="80" y1="0" x2="80" y2="360" /><line x1="120" y1="0" x2="120" y2="360" /><line x1="160" y1="0" x2="160" y2="360" /><line x1="200" y1="0" x2="200" y2="360" /><line x1="240" y1="0" x2="240" y2="360" /><line x1="280" y1="0" x2="280" y2="360" /><line x1="320" y1="0" x2="320" y2="360" /><line x1="360" y1="0" x2="360" y2="360" /><line x1="400" y1="0" x2="400" y2="360" /><line x1="440" y1="0" x2="440" y2="360" /><line x1="480" y1="0" x2="480" y2="360" /><line x1="520" y1="0" x2="520" y2="360" /><line x1="560" y1="0" x2="560" y2="360" /><line x1="600" y1="0" x2="600" y2="360" /><line x1="0" y1="40" x2="640" y2="40" /><line x1="0" y1="80" x2="640" y2="80" /><line x1="0" y1="120" x2="640" y2="120" /><line x1="0" y1="160" x2="640" y2="160" /><line x1="0" y1="200" x2="640" y2="200" /><line x1="0" y1="240" x2="640" y2="240" /><line x1="0" y1="280" x2="640" y2="280" /><line x1="0" y1="320" x2="640" y2="320" /></g>
<circle cx="166" cy="108" r="150" fill="url(#glowB)"/>
<circle cx="499" cy="259" r="170" fill="url(#glowC)"/>
<g stroke="#8aa0bd" stroke-width="2" opacity="0.5" stroke-linecap="round"><path d="M18 18 h18 M18 18 v18"/><path d="M622 18 h-18 M622 18 v18"/><path d="M18 342 h18 M18 342 v-18"/><path d="M622 342 h-18 M622 342 v-18"/></g>
<g font-family="ui-monospace,Menlo,monospace" font-size="13" font-weight="600"><rect x="24" y="316" width="386" height="26" rx="13" fill="#0a1322" opacity="0.65"/><circle cx="40" cy="329" r="3.5" fill="#22d3ee"/><text x="54" y="334" fill="#e8eef6" opacity="0.92">HIGH-BW · SIGNAL INTEGRITY</text></g><rect x="140" y="90" width="360" height="190" rx="10" fill="url(#screen)" stroke="#3b82f6" stroke-width="2"/><path d="M140 185 L140 211 L146 217 L152 222 L158 227 L164 231 L170 235 L176 238 L182 241 L188 243 L194 245 L200 246 L206 246 L212 245 L218 244 L224 242 L230 240 L236 237 L242 233 L248 229 L254 225 L260 220 L266 214 L272 208 L278 202 L284 196 L290 190 L296 184 L302 177 L308 171 L314 165 L320 159 L326 153 L332 148 L338 143 L344 139 L350 135 L356 132 L362 129 L368 127 L374 125 L380 124 L386 124 L392 125 L398 126 L404 128 L410 130 L416 133 L422 137 L428 141 L434 145 L440 150 L446 156 L452 162 L458 168 L464 174 L470 180 L476 186 L482 193 L488 199 L494 205 L500 211" fill="none" stroke="#22d3ee" stroke-width="1.5" opacity="0.5"/><path d="M140 185 L140 244 L146 245 L152 246 L158 246 L164 245 L170 243 L176 241 L182 238 L188 235 L194 231 L200 227 L206 222 L212 216 L218 211 L224 205 L230 199 L236 193 L242 186 L248 180 L254 174 L260 167 L266 161 L272 156 L278 150 L284 145 L290 141 L296 137 L302 133 L308 130 L314 128 L320 126 L326 125 L332 124 L338 124 L344 125 L350 127 L356 129 L362 132 L368 135 L374 139 L380 143 L386 148 L392 154 L398 159 L404 165 L410 171 L416 177 L422 184 L428 190 L434 196 L440 203 L446 209 L452 214 L458 220 L464 225 L470 229 L476 233 L482 237 L488 240 L494 242 L500 244" fill="none" stroke="#22d3ee" stroke-width="1.5" opacity="0.5"/><path d="M140 185 L140 233 L146 228 L152 224 L158 219 L164 213 L170 207 L176 201 L182 195 L188 189 L194 182 L200 176 L206 170 L212 164 L218 158 L224 152 L230 147 L236 142 L242 138 L248 134 L254 131 L260 128 L266 126 L272 125 L278 124 L284 124 L290 125 L296 126 L302 128 L308 131 L314 134 L320 137 L326 142 L332 146 L338 151 L344 157 L350 163 L356 169 L362 175 L368 181 L374 188 L380 194 L386 200 L392 206 L398 212 L404 218 L410 223 L416 228 L422 232 L428 236 L434 239 L440 242 L446 244 L452 245 L458 246 L464 246 L470 245 L476 244 L482 242 L488 239 L494 236 L500 233" fill="none" stroke="#22d3ee" stroke-width="1.5" opacity="0.5"/><path d="M140 185 L140 185 L146 179 L152 172 L158 166 L164 160 L170 155 L176 149 L182 144 L188 140 L194 136 L200 132 L206 129 L212 127 L218 126 L224 125 L230 124 L236 125 L242 126 L248 127 L254 129 L260 132 L266 136 L272 140 L278 144 L284 149 L290 155 L296 160 L302 166 L308 172 L314 179 L320 185 L326 191 L332 198 L338 204 L344 210 L350 215 L356 221 L362 226 L368 230 L374 234 L380 238 L386 241 L392 243 L398 244 L404 245 L410 246 L416 245 L422 244 L428 243 L434 241 L440 238 L446 234 L452 230 L458 226 L464 221 L470 215 L476 210 L482 204 L488 198 L494 191 L500 185" fill="none" stroke="#22d3ee" stroke-width="1.5" opacity="0.5"/><path d="M140 185 L140 137 L146 134 L152 131 L158 128 L164 126 L170 125 L176 124 L182 124 L188 125 L194 126 L200 128 L206 131 L212 134 L218 138 L224 142 L230 147 L236 152 L242 158 L248 164 L254 170 L260 176 L266 182 L272 189 L278 195 L284 201 L290 207 L296 213 L302 219 L308 224 L314 228 L320 233 L326 236 L332 239 L338 242 L344 244 L350 245 L356 246 L362 246 L368 245 L374 244 L380 242 L386 239 L392 236 L398 232 L404 228 L410 223 L416 218 L422 212 L428 206 L434 200 L440 194 L446 188 L452 181 L458 175 L464 169 L470 163 L476 157 L482 151 L488 146 L494 142 L500 137" fill="none" stroke="#22d3ee" stroke-width="1.5" opacity="0.5"/><path d="M140 185 L140 126 L146 128 L152 130 L158 133 L164 137 L170 141 L176 145 L182 150 L188 156 L194 161 L200 167 L206 174 L212 180 L218 186 L224 193 L230 199 L236 205 L242 211 L248 216 L254 222 L260 227 L266 231 L272 235 L278 238 L284 241 L290 243 L296 245 L302 246 L308 246 L314 245 L320 244 L326 242 L332 240 L338 237 L344 233 L350 229 L356 225 L362 220 L368 214 L374 209 L380 203 L386 196 L392 190 L398 184 L404 177 L410 171 L416 165 L422 159 L428 154 L434 148 L440 143 L446 139 L452 135 L458 132 L464 129 L470 127 L476 125 L482 124 L488 124 L494 125 L500 126" fill="none" stroke="#22d3ee" stroke-width="1.5" opacity="0.5"/><path d="M140 185 L140 159 L146 165 L152 171 L158 177 L164 184 L170 190 L176 196 L182 202 L188 208 L194 214 L200 220 L206 225 L212 229 L218 233 L224 237 L230 240 L236 242 L242 244 L248 245 L254 246 L260 246 L266 245 L272 243 L278 241 L284 238 L290 235 L296 231 L302 227 L308 222 L314 217 L320 211 L326 205 L332 199 L338 193 L344 186 L350 180 L356 174 L362 168 L368 162 L374 156 L380 150 L386 145 L392 141 L398 137 L404 133 L410 130 L416 128 L422 126 L428 125 L434 124 L440 124 L446 125 L452 127 L458 129 L464 132 L470 135 L476 139 L482 143 L488 148 L494 153 L500 159" fill="none" stroke="#22d3ee" stroke-width="1.5" opacity="0.5"/>
</svg>
