<svg xmlns="http://www.w3.org/2000/svg" viewBox="0 0 640 360" width="640" height="360" role="img">
<defs>
<linearGradient id="bg" x1="0" y1="0" x2="1" y2="1">
  <stop offset="0" stop-color="#0a1322"/><stop offset="1" stop-color="#0f1f38"/>
</linearGradient>
<radialGradient id="glowB" cx="0.5" cy="0.5" r="0.5">
  <stop offset="0" stop-color="#3b82f6" stop-opacity="0.55"/><stop offset="1" stop-color="#3b82f6" stop-opacity="0"/>
</radialGradient>
<radialGradient id="glowC" cx="0.5" cy="0.5" r="0.5">
  <stop offset="0" stop-color="#22d3ee" stop-opacity="0.40"/><stop offset="1" stop-color="#22d3ee" stop-opacity="0"/>
</radialGradient>
<linearGradient id="screen" x1="0" y1="0" x2="0" y2="1">
  <stop offset="0" stop-color="#0c1a30"/><stop offset="1" stop-color="#0a1626"/>
</linearGradient>
</defs>
<rect width="640" height="360" rx="0" fill="url(#bg)"/>
<g stroke="#1c2c47" stroke-width="1" opacity="0.55"><line x1="40" y1="0" x2="40" y2="360" /><line x1="80" y1="0" x2="80" y2="360" /><line x1="120" y1="0" x2="120" y2="360" /><line x1="160" y1="0" x2="160" y2="360" /><line x1="200" y1="0" x2="200" y2="360" /><line x1="240" y1="0" x2="240" y2="360" /><line x1="280" y1="0" x2="280" y2="360" /><line x1="320" y1="0" x2="320" y2="360" /><line x1="360" y1="0" x2="360" y2="360" /><line x1="400" y1="0" x2="400" y2="360" /><line x1="440" y1="0" x2="440" y2="360" /><line x1="480" y1="0" x2="480" y2="360" /><line x1="520" y1="0" x2="520" y2="360" /><line x1="560" y1="0" x2="560" y2="360" /><line x1="600" y1="0" x2="600" y2="360" /><line x1="0" y1="40" x2="640" y2="40" /><line x1="0" y1="80" x2="640" y2="80" /><line x1="0" y1="120" x2="640" y2="120" /><line x1="0" y1="160" x2="640" y2="160" /><line x1="0" y1="200" x2="640" y2="200" /><line x1="0" y1="240" x2="640" y2="240" /><line x1="0" y1="280" x2="640" y2="280" /><line x1="0" y1="320" x2="640" y2="320" /></g>
<circle cx="166" cy="108" r="150" fill="url(#glowB)"/>
<circle cx="499" cy="259" r="170" fill="url(#glowC)"/>
<g stroke="#8aa0bd" stroke-width="2" opacity="0.5" stroke-linecap="round"><path d="M18 18 h18 M18 18 v18"/><path d="M622 18 h-18 M622 18 v18"/><path d="M18 342 h18 M18 342 v-18"/><path d="M622 342 h-18 M622 342 v-18"/></g>
<g font-family="ui-monospace,Menlo,monospace" font-size="13" font-weight="600"><rect x="24" y="316" width="316" height="26" rx="13" fill="#0a1322" opacity="0.65"/><circle cx="40" cy="329" r="3.5" fill="#22d3ee"/><text x="54" y="334" fill="#e8eef6" opacity="0.92">EDUCATION · LAB BENCH</text></g><rect x="110" y="80" width="230" height="150" rx="12" fill="url(#screen)" stroke="#3b82f6" stroke-width="2"/><g stroke="#1c2c47" stroke-width="1" opacity="0.8"><line x1="148" y1="80" x2="148" y2="230"/><line x1="187" y1="80" x2="187" y2="230"/><line x1="225" y1="80" x2="225" y2="230"/><line x1="263" y1="80" x2="263" y2="230"/><line x1="302" y1="80" x2="302" y2="230"/><line x1="110" y1="118" x2="340" y2="118"/><line x1="110" y1="155" x2="340" y2="155"/><line x1="110" y1="192" x2="340" y2="192"/></g><path d="M122 155 h206" stroke="#8aa0bd" stroke-width="1" opacity="0.4"/><path d="M122,155 L130,132 L138,115 L146,107 L154,110 L162,124 L170,145 L178,168 L186,188 L194,201 L202,203 L210,193 L218,175 L226,152 L234,130 L242,113 L250,107 L258,111 L266,126 L274,148 L282,171 L290,190 L298,202 L306,202 L314,191 L322,172" fill="none" stroke="#22d3ee" stroke-width="3" stroke-linecap="round" stroke-linejoin="round"/><rect x="360" y="80" width="160" height="66" rx="12" fill="url(#screen)" stroke="#3b82f6" stroke-width="2.5"/><text x="440" y="119" text-anchor="middle" font-family="ui-monospace,monospace" font-weight="700" font-size="20" fill="#e8eef6" opacity="0.9">DC PSU</text><rect x="360" y="164" width="160" height="66" rx="12" fill="url(#screen)" stroke="#3b82f6" stroke-width="2.5"/><rect x="374" y="178" width="132" height="30" rx="6" fill="#08131f" stroke="#22d3ee" stroke-width="1.5"/><text x="440" y="192" text-anchor="middle" font-family="ui-monospace,monospace" font-weight="700" font-size="26" fill="#22d3ee">88.8</text><g fill="#3b82f6" opacity="0.5"><rect x="378" y="205" width="32" height="10" rx="3"/><rect x="420" y="205" width="32" height="10" rx="3"/><rect x="461" y="205" width="32" height="10" rx="3"/></g>
</svg>
